<?xml version="1.0" standalone="no"?>
<!DOCTYPE svg PUBLIC "-//W3C//DTD SVG 20010904//EN"
 "http://www.w3.org/TR/2001/REC-SVG-20010904/DTD/svg10.dtd">
<svg version="1.0" xmlns="http://www.w3.org/2000/svg"
 width="260.000000pt" height="260.000000pt" viewBox="0 0 260.000000 260.000000"
 preserveAspectRatio="xMidYMid meet">
<metadata>
Created by potrace 1.14, written by Peter Selinger 2001-2017
</metadata>
<g transform="translate(0.000000,260.000000) scale(0.100000,-0.100000)"
fill="#000000" stroke="none">
<path d="M1367 2203 c-4 -3 -28 -7 -54 -9 -26 -2 -55 -5 -63 -7 -16 -4 -17 -5
-95 -33 -27 -10 -53 -17 -57 -16 -5 1 -8 -2 -8 -6 0 -8 -50 -36 -58 -33 -7 3
-162 -157 -162 -168 0 -6 -4 -11 -10 -11 -5 0 -10 -6 -10 -14 0 -14 -16 -16
-35 -5 -17 11 -99 7 -114 -5 -12 -9 -13 -8 -6 3 6 10 4 12 -5 6 -12 -7 -29
-11 -85 -18 -11 -1 -26 -8 -33 -15 -8 -7 -18 -10 -23 -7 -5 4 -9 3 -9 -2 0 -4
-15 -15 -32 -23 -37 -16 -37 -16 -93 -68 -79 -72 -141 -173 -152 -247 -3 -16
-9 -31 -14 -33 -5 -2 -9 -8 -9 -13 0 -6 6 -7 13 -3 9 6 9 5 1 -7 -12 -14 -16
-159 -4 -159 3 0 7 -8 8 -17 1 -10 3 -27 4 -38 2 -11 9 -26 16 -33 6 -7 12
-22 12 -33 0 -10 5 -19 12 -19 6 0 8 -3 5 -7 -4 -3 0 -15 10 -25 9 -10 13 -18
9 -18 -17 0 120 -137 146 -146 10 -3 18 -10 18 -15 0 -6 5 -7 10 -4 6 3 10 1
10 -4 0 -6 4 -11 9 -11 5 0 22 -5 38 -11 15 -6 28 -10 28 -9 0 1 13 -4 29 -10
17 -6 55 -13 85 -16 31 -3 61 -7 68 -9 6 -2 14 1 17 8 2 7 5 7 5 2 1 -7 25
-10 61 -8 45 2 59 -1 55 -10 -4 -6 1 -3 9 7 9 11 16 14 16 7 0 -7 5 -9 10 -6
6 4 18 1 27 -7 13 -10 15 -10 9 0 -6 10 8 12 63 9 39 -1 76 2 81 7 7 7 10 6
10 -1 0 -6 9 -9 20 -6 12 3 20 0 20 -7 0 -7 7 -5 17 6 10 10 19 12 21 6 2 -6
10 -8 19 -5 8 3 19 0 24 -8 5 -9 9 -9 9 -2 0 7 22 11 65 11 44 -1 63 -4 59
-12 -3 -6 2 -2 10 8 9 11 16 14 16 7 0 -7 5 -9 10 -6 6 4 18 1 27 -7 9 -7 14
-8 10 -2 -5 9 28 12 123 11 89 0 128 -4 124 -11 -3 -6 2 -2 10 8 9 11 16 14
16 7 0 -7 5 -9 10 -6 6 4 18 1 27 -7 9 -7 14 -8 10 -2 -5 9 26 12 111 13 154
1 235 12 248 32 3 5 10 7 15 4 5 -4 9 -1 9 4 0 6 3 10 8 9 38 -11 192 146 192
197 0 8 3 15 8 15 10 0 34 79 27 91 -4 5 -1 9 4 9 6 0 10 3 10 8 -1 4 0 9 1
12 8 17 5 78 -4 73 -5 -4 -7 1 -3 11 4 10 4 23 0 29 -8 12 -13 33 -15 55 -1 6
-5 12 -10 12 -5 0 -7 4 -4 9 3 5 -3 20 -14 33 -11 14 -16 29 -12 33 4 5 1 5
-5 1 -7 -4 -13 -3 -13 1 0 10 -67 83 -75 83 -3 0 -20 7 -38 17 -17 9 -41 18
-52 20 -10 2 -22 7 -25 11 -3 4 -36 7 -74 8 l-70 0 -4 35 c-2 18 -7 36 -11 39
-4 3 -6 12 -6 20 1 8 -4 25 -12 37 -7 12 -13 27 -13 33 0 6 -11 27 -25 47 -13
20 -21 41 -18 46 3 6 1 7 -5 3 -7 -4 -12 -1 -12 8 0 9 -9 21 -20 28 -11 7 -20
17 -20 22 0 10 -61 66 -72 66 -5 0 -8 7 -8 15 0 8 -3 14 -7 13 -5 -1 -26 9
-48 23 -57 36 -131 69 -160 71 -14 1 -25 5 -25 8 0 6 -33 11 -77 13 -13 1 -23
6 -23 11 0 6 -5 5 -12 -2 -7 -7 -17 -8 -28 -2 -10 5 -20 7 -23 3z m94 -69 c0
7 2 7 6 -2 2 -6 9 -10 14 -6 5 3 9 1 9 -3 0 -5 14 -10 30 -11 46 -3 206 -83
193 -96 -3 -3 0 -6 8 -6 17 0 116 -104 124 -131 4 -10 11 -19 16 -19 5 0 9 -9
9 -20 0 -11 5 -20 10 -20 6 0 10 -8 10 -18 0 -10 4 -22 10 -28 5 -5 11 -18 13
-29 1 -11 5 -24 8 -30 3 -5 7 -23 8 -40 1 -16 3 -41 4 -55 2 -31 33 -42 68
-24 15 7 29 11 32 8 3 -3 25 -7 49 -9 23 -1 44 -3 46 -4 1 0 3 0 5 0 6 4 89
-43 109 -63 32 -31 82 -98 73 -98 -4 0 -2 -7 5 -15 19 -22 21 -151 4 -192 -8
-18 -11 -33 -8 -33 4 0 0 -7 -7 -16 -7 -9 -14 -23 -16 -32 -1 -9 -7 -18 -12
-20 -6 -2 -11 -8 -11 -13 0 -12 -69 -82 -100 -101 -25 -15 -105 -44 -105 -38
0 2 -11 -2 -24 -9 -19 -10 -22 -10 -16 0 6 9 4 10 -6 3 -14 -9 -1309 -13
-1309 -4 0 3 -10 5 -22 6 -52 2 -158 39 -158 55 0 5 -6 9 -14 9 -7 0 -28 15
-47 32 -19 18 -37 32 -42 30 -4 -1 -7 2 -7 8 0 5 -15 31 -33 57 -36 52 -59
110 -63 158 -1 17 -3 34 -3 38 -1 5 -4 6 -9 4 -4 -3 -7 12 -7 34 0 21 4 39 9
39 5 0 6 3 3 7 -4 3 -2 12 4 20 9 10 8 13 0 13 -7 0 -9 5 -4 13 4 6 9 21 10
32 2 10 9 23 16 27 9 6 8 8 -2 8 -11 0 -11 3 2 18 8 9 17 23 19 31 2 8 10 24
18 35 16 22 107 113 132 133 24 18 111 56 135 59 13 1 33 6 44 9 16 6 20 4 13
-6 -6 -11 -5 -12 7 -2 9 7 25 11 37 8 12 -2 22 1 22 6 0 6 5 7 10 4 6 -4 8
-10 5 -15 -3 -4 4 -6 15 -3 16 4 18 1 13 -23 -3 -16 -6 -35 -6 -41 0 -7 -3
-13 -7 -13 -9 0 -6 -153 4 -169 6 -10 6 -12 -2 -7 -7 4 -5 -7 3 -29 9 -19 16
-38 16 -42 4 -21 14 -40 32 -55 22 -20 31 -23 23 -9 -4 5 -1 11 4 13 16 5 19
40 7 63 -6 11 -13 33 -15 50 -2 16 -8 36 -14 42 -7 9 -7 13 0 13 7 0 8 10 2
30 -5 17 -5 30 -1 30 4 0 8 7 8 15 0 8 -5 15 -11 15 -6 0 -4 5 4 10 8 5 12 10
8 10 -4 0 -1 18 7 40 8 22 15 41 15 43 0 1 3 12 6 25 4 12 11 22 17 22 6 0 8
3 4 6 -8 9 43 82 79 114 48 42 91 70 98 63 3 -3 6 -1 6 5 0 11 49 38 80 44 8
2 18 6 21 10 6 9 45 16 129 25 30 3 56 6 58 8 2 1 19 -1 38 -5 23 -5 34 -4 35
4z"/>
<path d="M940 817 c-16 -14 -27 -29 -63 -97 -39 -72 -39 -105 0 -149 22 -25
35 -31 68 -30 32 0 45 6 65 31 37 48 35 82 -13 167 -23 41 -41 78 -39 83 3 11
0 10 -18 -5z"/>
<path d="M1360 804 c-7 -7 -13 -20 -14 -28 -1 -8 -9 -23 -17 -33 -8 -10 -21
-31 -29 -48 -8 -16 -19 -33 -25 -37 -6 -5 -5 -8 3 -8 7 0 11 -4 8 -9 -9 -14
18 -71 36 -77 10 -3 16 -10 13 -15 -4 -5 16 -9 44 -9 31 0 51 4 51 11 0 7 9
20 20 29 26 23 34 85 13 105 -8 8 -12 15 -8 15 3 0 -3 14 -15 30 -12 17 -18
30 -15 30 4 0 -1 7 -9 16 -9 8 -14 19 -11 24 9 14 -34 18 -45 4z"/>
<path d="M1785 810 c3 -6 -1 -13 -9 -16 -9 -3 -14 -10 -11 -14 3 -4 -2 -13
-10 -20 -8 -7 -15 -19 -15 -26 0 -8 -5 -14 -10 -14 -5 0 -9 -3 -8 -7 1 -5 -3
-17 -9 -28 -18 -33 -8 -87 21 -111 16 -15 21 -24 13 -27 -7 -3 14 -6 45 -6 50
-1 57 1 51 16 -4 10 -2 14 4 10 17 -11 43 39 43 83 0 22 -4 40 -10 40 -5 0
-10 9 -10 20 0 11 -4 20 -8 20 -5 0 -19 20 -32 45 -13 25 -29 45 -37 45 -8 0
-11 -5 -8 -10z"/>
</g>
</svg>
